<mxfile host="app.diagrams.net" modified="2020-09-13T05:04:40.806Z" agent="5.0 (Windows NT 10.0; WOW64) AppleWebKit/537.36 (KHTML, like Gecko) Chrome/72.0.3626.81 Safari/537.36 SE 2.X MetaSr 1.0" etag="DvSE1bZG_o2T1BJnVhtf" version="13.6.10" type="github">
  <diagram name="Page-1" id="822b0af5-4adb-64df-f703-e8dfc1f81529">
    <mxGraphModel dx="4325" dy="2625" grid="1" gridSize="10" guides="1" tooltips="1" connect="1" arrows="1" fold="1" page="1" pageScale="1" pageWidth="1100" pageHeight="850" background="#ffffff" math="0" shadow="0">
      <root>
        <mxCell id="0" />
        <mxCell id="1" parent="0" />
        <mxCell id="pVMnufyLOT6Cpiad9U3A-1" value="&lt;font style=&quot;font-size: 20px&quot;&gt;Input-Token (InputLayer)&lt;/font&gt;" style="rounded=1;whiteSpace=wrap;html=1;fillColor=#ffe6cc;strokeColor=#d79b00;" vertex="1" parent="1">
          <mxGeometry x="509" y="920" width="326" height="60" as="geometry" />
        </mxCell>
        <mxCell id="pVMnufyLOT6Cpiad9U3A-2" value="" style="rounded=0;whiteSpace=wrap;html=1;fillColor=#d5e8d4;strokeColor=#82b366;" vertex="1" parent="1">
          <mxGeometry x="837" y="920" width="120" height="30" as="geometry" />
        </mxCell>
        <mxCell id="pVMnufyLOT6Cpiad9U3A-3" value="(None, None)" style="rounded=0;whiteSpace=wrap;html=1;fillColor=#d5e8d4;strokeColor=#82b366;" vertex="1" parent="1">
          <mxGeometry x="837" y="950" width="120" height="30" as="geometry" />
        </mxCell>
        <mxCell id="pVMnufyLOT6Cpiad9U3A-5" value="&lt;font style=&quot;font-size: 20px&quot;&gt;Input-Segment (InputLayer)&amp;nbsp;&lt;/font&gt;" style="rounded=1;whiteSpace=wrap;html=1;fillColor=#ffe6cc;strokeColor=#d79b00;" vertex="1" parent="1">
          <mxGeometry x="1087" y="920" width="326" height="60" as="geometry" />
        </mxCell>
        <mxCell id="pVMnufyLOT6Cpiad9U3A-6" value="" style="rounded=0;whiteSpace=wrap;html=1;fillColor=#d5e8d4;strokeColor=#82b366;" vertex="1" parent="1">
          <mxGeometry x="1415" y="920" width="120" height="30" as="geometry" />
        </mxCell>
        <mxCell id="pVMnufyLOT6Cpiad9U3A-7" value="(None, None)" style="rounded=0;whiteSpace=wrap;html=1;fillColor=#d5e8d4;strokeColor=#82b366;" vertex="1" parent="1">
          <mxGeometry x="1415" y="950" width="120" height="30" as="geometry" />
        </mxCell>
        <mxCell id="pVMnufyLOT6Cpiad9U3A-8" value="&lt;font style=&quot;font-size: 20px&quot;&gt;Embedding-Token (Embedding)&amp;nbsp;&lt;/font&gt;" style="rounded=1;whiteSpace=wrap;html=1;fillColor=#ffe6cc;strokeColor=#d79b00;" vertex="1" parent="1">
          <mxGeometry x="509" y="1070" width="326" height="60" as="geometry" />
        </mxCell>
        <mxCell id="pVMnufyLOT6Cpiad9U3A-9" value="" style="rounded=0;whiteSpace=wrap;html=1;fillColor=#d5e8d4;strokeColor=#82b366;" vertex="1" parent="1">
          <mxGeometry x="837" y="1070" width="120" height="30" as="geometry" />
        </mxCell>
        <mxCell id="pVMnufyLOT6Cpiad9U3A-10" value="multiple&amp;nbsp;&amp;nbsp;" style="rounded=0;whiteSpace=wrap;html=1;fillColor=#d5e8d4;strokeColor=#82b366;" vertex="1" parent="1">
          <mxGeometry x="837" y="1100" width="120" height="30" as="geometry" />
        </mxCell>
        <mxCell id="pVMnufyLOT6Cpiad9U3A-11" value="&lt;font style=&quot;font-size: 20px&quot;&gt;MLM-Norm[0][0]&amp;nbsp; &amp;nbsp; &amp;nbsp;&lt;/font&gt;" style="rounded=1;whiteSpace=wrap;html=1;fillColor=#ffe6cc;strokeColor=#d79b00;" vertex="1" parent="1">
          <mxGeometry x="90" y="920" width="326" height="60" as="geometry" />
        </mxCell>
        <mxCell id="pVMnufyLOT6Cpiad9U3A-12" value="" style="endArrow=classic;html=1;exitX=0.5;exitY=1;exitDx=0;exitDy=0;entryX=0.5;entryY=0;entryDx=0;entryDy=0;" edge="1" parent="1" source="pVMnufyLOT6Cpiad9U3A-1" target="pVMnufyLOT6Cpiad9U3A-8">
          <mxGeometry width="50" height="50" relative="1" as="geometry">
            <mxPoint x="700" y="1170" as="sourcePoint" />
            <mxPoint x="750" y="1120" as="targetPoint" />
          </mxGeometry>
        </mxCell>
        <mxCell id="pVMnufyLOT6Cpiad9U3A-13" value="" style="endArrow=classic;html=1;exitX=0.5;exitY=1;exitDx=0;exitDy=0;entryX=0.5;entryY=0;entryDx=0;entryDy=0;" edge="1" parent="1" source="pVMnufyLOT6Cpiad9U3A-11" target="pVMnufyLOT6Cpiad9U3A-8">
          <mxGeometry width="50" height="50" relative="1" as="geometry">
            <mxPoint x="310" y="1310" as="sourcePoint" />
            <mxPoint x="360" y="1260" as="targetPoint" />
            <Array as="points">
              <mxPoint x="253" y="1030" />
              <mxPoint x="672" y="1030" />
            </Array>
          </mxGeometry>
        </mxCell>
        <mxCell id="pVMnufyLOT6Cpiad9U3A-15" value="&lt;font style=&quot;font-size: 20px&quot;&gt;Embedding-Segment (Embedding)&lt;/font&gt;" style="rounded=1;whiteSpace=wrap;html=1;fillColor=#ffe6cc;strokeColor=#d79b00;" vertex="1" parent="1">
          <mxGeometry x="1087" y="1070" width="326" height="60" as="geometry" />
        </mxCell>
        <mxCell id="pVMnufyLOT6Cpiad9U3A-16" value="" style="rounded=0;whiteSpace=wrap;html=1;fillColor=#d5e8d4;strokeColor=#82b366;" vertex="1" parent="1">
          <mxGeometry x="1415" y="1070" width="120" height="30" as="geometry" />
        </mxCell>
        <mxCell id="pVMnufyLOT6Cpiad9U3A-17" value="(None, None, 768)" style="rounded=0;whiteSpace=wrap;html=1;fillColor=#d5e8d4;strokeColor=#82b366;" vertex="1" parent="1">
          <mxGeometry x="1415" y="1100" width="120" height="30" as="geometry" />
        </mxCell>
        <mxCell id="pVMnufyLOT6Cpiad9U3A-18" value="" style="endArrow=classic;html=1;exitX=0.5;exitY=1;exitDx=0;exitDy=0;entryX=0.5;entryY=0;entryDx=0;entryDy=0;" edge="1" parent="1" source="pVMnufyLOT6Cpiad9U3A-5" target="pVMnufyLOT6Cpiad9U3A-15">
          <mxGeometry width="50" height="50" relative="1" as="geometry">
            <mxPoint x="1680" y="1020" as="sourcePoint" />
            <mxPoint x="1730" y="970" as="targetPoint" />
          </mxGeometry>
        </mxCell>
        <mxCell id="pVMnufyLOT6Cpiad9U3A-19" value="&lt;font style=&quot;font-size: 20px&quot;&gt;Embedding-Token-Segment (Add)&lt;/font&gt;" style="rounded=1;whiteSpace=wrap;html=1;fillColor=#ffe6cc;strokeColor=#d79b00;" vertex="1" parent="1">
          <mxGeometry x="810" y="1230" width="326" height="60" as="geometry" />
        </mxCell>
        <mxCell id="pVMnufyLOT6Cpiad9U3A-20" value="" style="rounded=0;whiteSpace=wrap;html=1;fillColor=#d5e8d4;strokeColor=#82b366;" vertex="1" parent="1">
          <mxGeometry x="1138" y="1230" width="120" height="30" as="geometry" />
        </mxCell>
        <mxCell id="pVMnufyLOT6Cpiad9U3A-21" value="(None, None, 768)&amp;nbsp;" style="rounded=0;whiteSpace=wrap;html=1;fillColor=#d5e8d4;strokeColor=#82b366;" vertex="1" parent="1">
          <mxGeometry x="1138" y="1260" width="120" height="30" as="geometry" />
        </mxCell>
        <mxCell id="pVMnufyLOT6Cpiad9U3A-22" value="&lt;font style=&quot;font-size: 20px&quot;&gt;Embedding-Position (PositionEmb&lt;/font&gt;" style="rounded=1;whiteSpace=wrap;html=1;fillColor=#ffe6cc;strokeColor=#d79b00;" vertex="1" parent="1">
          <mxGeometry x="810" y="1370" width="326" height="60" as="geometry" />
        </mxCell>
        <mxCell id="pVMnufyLOT6Cpiad9U3A-23" value="" style="rounded=0;whiteSpace=wrap;html=1;fillColor=#d5e8d4;strokeColor=#82b366;" vertex="1" parent="1">
          <mxGeometry x="1138" y="1370" width="120" height="30" as="geometry" />
        </mxCell>
        <mxCell id="pVMnufyLOT6Cpiad9U3A-24" value="(None, None, 768)&amp;nbsp;" style="rounded=0;whiteSpace=wrap;html=1;fillColor=#d5e8d4;strokeColor=#82b366;" vertex="1" parent="1">
          <mxGeometry x="1138" y="1400" width="120" height="30" as="geometry" />
        </mxCell>
        <mxCell id="pVMnufyLOT6Cpiad9U3A-25" value="&lt;font style=&quot;font-size: 20px&quot;&gt;Embedding-Norm (LayerNormalizat&lt;/font&gt;" style="rounded=1;whiteSpace=wrap;html=1;fillColor=#ffe6cc;strokeColor=#d79b00;" vertex="1" parent="1">
          <mxGeometry x="810" y="1510" width="326" height="60" as="geometry" />
        </mxCell>
        <mxCell id="pVMnufyLOT6Cpiad9U3A-26" value="" style="rounded=0;whiteSpace=wrap;html=1;fillColor=#d5e8d4;strokeColor=#82b366;" vertex="1" parent="1">
          <mxGeometry x="1138" y="1510" width="120" height="30" as="geometry" />
        </mxCell>
        <mxCell id="pVMnufyLOT6Cpiad9U3A-27" value="(None, None, 768)&amp;nbsp;" style="rounded=0;whiteSpace=wrap;html=1;fillColor=#d5e8d4;strokeColor=#82b366;" vertex="1" parent="1">
          <mxGeometry x="1138" y="1540" width="120" height="30" as="geometry" />
        </mxCell>
        <mxCell id="pVMnufyLOT6Cpiad9U3A-28" value="&lt;font style=&quot;font-size: 20px&quot;&gt;Embedding-Dropout (Dropout)&amp;nbsp;&lt;/font&gt;" style="rounded=1;whiteSpace=wrap;html=1;fillColor=#ffe6cc;strokeColor=#d79b00;" vertex="1" parent="1">
          <mxGeometry x="810" y="1650" width="326" height="60" as="geometry" />
        </mxCell>
        <mxCell id="pVMnufyLOT6Cpiad9U3A-29" value="" style="rounded=0;whiteSpace=wrap;html=1;fillColor=#d5e8d4;strokeColor=#82b366;" vertex="1" parent="1">
          <mxGeometry x="1138" y="1650" width="120" height="30" as="geometry" />
        </mxCell>
        <mxCell id="pVMnufyLOT6Cpiad9U3A-30" value="(None, None, 768)&amp;nbsp;" style="rounded=0;whiteSpace=wrap;html=1;fillColor=#d5e8d4;strokeColor=#82b366;" vertex="1" parent="1">
          <mxGeometry x="1138" y="1680" width="120" height="30" as="geometry" />
        </mxCell>
        <mxCell id="pVMnufyLOT6Cpiad9U3A-31" value="&lt;font style=&quot;font-size: 20px&quot;&gt;Attention-UniLM-Mask (Lambda)&lt;/font&gt;" style="rounded=1;whiteSpace=wrap;html=1;fillColor=#ffe6cc;strokeColor=#d79b00;" vertex="1" parent="1">
          <mxGeometry x="1620" y="1070" width="326" height="60" as="geometry" />
        </mxCell>
        <mxCell id="pVMnufyLOT6Cpiad9U3A-32" value="" style="rounded=0;whiteSpace=wrap;html=1;fillColor=#d5e8d4;strokeColor=#82b366;" vertex="1" parent="1">
          <mxGeometry x="1948" y="1070" width="120" height="30" as="geometry" />
        </mxCell>
        <mxCell id="pVMnufyLOT6Cpiad9U3A-33" value="(None, 1, None, None" style="rounded=0;whiteSpace=wrap;html=1;fillColor=#d5e8d4;strokeColor=#82b366;" vertex="1" parent="1">
          <mxGeometry x="1948" y="1100" width="120" height="30" as="geometry" />
        </mxCell>
        <mxCell id="pVMnufyLOT6Cpiad9U3A-34" value="" style="endArrow=classic;html=1;exitX=0.5;exitY=1;exitDx=0;exitDy=0;entryX=0.5;entryY=0;entryDx=0;entryDy=0;" edge="1" parent="1" source="pVMnufyLOT6Cpiad9U3A-5" target="pVMnufyLOT6Cpiad9U3A-31">
          <mxGeometry width="50" height="50" relative="1" as="geometry">
            <mxPoint x="1640" y="1030" as="sourcePoint" />
            <mxPoint x="1690" y="980" as="targetPoint" />
            <Array as="points">
              <mxPoint x="1250" y="1030" />
              <mxPoint x="1783" y="1030" />
            </Array>
          </mxGeometry>
        </mxCell>
        <mxCell id="pVMnufyLOT6Cpiad9U3A-35" value="&lt;font style=&quot;font-size: 20px&quot;&gt;Transformer-0-MultiHeadSelfAtte&lt;/font&gt;" style="rounded=1;whiteSpace=wrap;html=1;fillColor=#ffe6cc;strokeColor=#d79b00;" vertex="1" parent="1">
          <mxGeometry x="1130" y="1820" width="326" height="60" as="geometry" />
        </mxCell>
        <mxCell id="pVMnufyLOT6Cpiad9U3A-36" value="" style="rounded=0;whiteSpace=wrap;html=1;fillColor=#d5e8d4;strokeColor=#82b366;" vertex="1" parent="1">
          <mxGeometry x="1458" y="1820" width="120" height="30" as="geometry" />
        </mxCell>
        <mxCell id="pVMnufyLOT6Cpiad9U3A-37" value="&amp;nbsp;(None, None, 768)&amp;nbsp;" style="rounded=0;whiteSpace=wrap;html=1;fillColor=#d5e8d4;strokeColor=#82b366;" vertex="1" parent="1">
          <mxGeometry x="1458" y="1850" width="120" height="30" as="geometry" />
        </mxCell>
        <mxCell id="pVMnufyLOT6Cpiad9U3A-38" value="" style="endArrow=classic;html=1;exitX=0.5;exitY=1;exitDx=0;exitDy=0;entryX=0.5;entryY=0;entryDx=0;entryDy=0;" edge="1" parent="1" source="pVMnufyLOT6Cpiad9U3A-19" target="pVMnufyLOT6Cpiad9U3A-22">
          <mxGeometry width="50" height="50" relative="1" as="geometry">
            <mxPoint x="1350" y="1340" as="sourcePoint" />
            <mxPoint x="1400" y="1290" as="targetPoint" />
          </mxGeometry>
        </mxCell>
        <mxCell id="pVMnufyLOT6Cpiad9U3A-39" value="" style="endArrow=classic;html=1;exitX=0.5;exitY=1;exitDx=0;exitDy=0;entryX=0.5;entryY=0;entryDx=0;entryDy=0;" edge="1" parent="1" source="pVMnufyLOT6Cpiad9U3A-22" target="pVMnufyLOT6Cpiad9U3A-25">
          <mxGeometry width="50" height="50" relative="1" as="geometry">
            <mxPoint x="1350" y="1480" as="sourcePoint" />
            <mxPoint x="1400" y="1430" as="targetPoint" />
          </mxGeometry>
        </mxCell>
        <mxCell id="pVMnufyLOT6Cpiad9U3A-40" value="" style="endArrow=classic;html=1;exitX=0.5;exitY=1;exitDx=0;exitDy=0;entryX=0.5;entryY=0;entryDx=0;entryDy=0;" edge="1" parent="1" source="pVMnufyLOT6Cpiad9U3A-25" target="pVMnufyLOT6Cpiad9U3A-28">
          <mxGeometry width="50" height="50" relative="1" as="geometry">
            <mxPoint x="1370" y="1650" as="sourcePoint" />
            <mxPoint x="1420" y="1600" as="targetPoint" />
          </mxGeometry>
        </mxCell>
        <mxCell id="pVMnufyLOT6Cpiad9U3A-41" value="" style="endArrow=classic;html=1;exitX=0.5;exitY=1;exitDx=0;exitDy=0;" edge="1" parent="1" source="pVMnufyLOT6Cpiad9U3A-8">
          <mxGeometry width="50" height="50" relative="1" as="geometry">
            <mxPoint x="710" y="1250" as="sourcePoint" />
            <mxPoint x="973" y="1228" as="targetPoint" />
            <Array as="points">
              <mxPoint x="672" y="1190" />
              <mxPoint x="973" y="1190" />
            </Array>
          </mxGeometry>
        </mxCell>
        <mxCell id="pVMnufyLOT6Cpiad9U3A-42" value="" style="endArrow=classic;html=1;exitX=0.573;exitY=1.167;exitDx=0;exitDy=0;exitPerimeter=0;entryX=0.5;entryY=0;entryDx=0;entryDy=0;" edge="1" parent="1" source="pVMnufyLOT6Cpiad9U3A-31" target="pVMnufyLOT6Cpiad9U3A-35">
          <mxGeometry width="50" height="50" relative="1" as="geometry">
            <mxPoint x="1860" y="1370" as="sourcePoint" />
            <mxPoint x="1910" y="1320" as="targetPoint" />
            <Array as="points">
              <mxPoint x="1807" y="1740" />
              <mxPoint x="1293" y="1750" />
            </Array>
          </mxGeometry>
        </mxCell>
        <mxCell id="pVMnufyLOT6Cpiad9U3A-43" value="" style="endArrow=classic;html=1;exitX=0.5;exitY=1;exitDx=0;exitDy=0;entryX=0.5;entryY=0;entryDx=0;entryDy=0;" edge="1" parent="1" source="pVMnufyLOT6Cpiad9U3A-15" target="pVMnufyLOT6Cpiad9U3A-19">
          <mxGeometry width="50" height="50" relative="1" as="geometry">
            <mxPoint x="1490" y="1340" as="sourcePoint" />
            <mxPoint x="1540" y="1290" as="targetPoint" />
            <Array as="points">
              <mxPoint x="1250" y="1190" />
              <mxPoint x="973" y="1190" />
            </Array>
          </mxGeometry>
        </mxCell>
        <mxCell id="pVMnufyLOT6Cpiad9U3A-44" value="" style="endArrow=classic;html=1;entryX=0.5;entryY=0;entryDx=0;entryDy=0;exitX=0.5;exitY=1;exitDx=0;exitDy=0;" edge="1" parent="1" source="pVMnufyLOT6Cpiad9U3A-28" target="pVMnufyLOT6Cpiad9U3A-35">
          <mxGeometry width="50" height="50" relative="1" as="geometry">
            <mxPoint x="890" y="1890" as="sourcePoint" />
            <mxPoint x="940" y="1840" as="targetPoint" />
            <Array as="points">
              <mxPoint x="973" y="1760" />
              <mxPoint x="1293" y="1760" />
            </Array>
          </mxGeometry>
        </mxCell>
      </root>
    </mxGraphModel>
  </diagram>
</mxfile>
